<svg id="Слой_1" data-name="Слой 1" xmlns="http://www.w3.org/2000/svg" viewBox="0 0 370 224.48"><defs><style>.cls-1{fill:#f1f2f3;}.cls-2{fill:#e371a9;fill-rule:evenodd;}</style></defs><path class="cls-1" d="M284.66,40.82c-102.17,0-185,82.23-185,183.66h370C469.66,123.05,386.84,40.82,284.66,40.82Z" transform="translate(-99.66 0)"/><path class="cls-2" d="M238,116.84c-7.65,9.49-17,21.09-17,27.86,0,9,29.12,36.4,43.68,49-6.89,7.93-11.22,19.36-13.81,30.8h92.93c-.16-5.75-.35-10.71-.49-13.45-.42-7.89-3.22-15.44-5.08-20.45h0c-.43-1.15-.8-2.17-1.09-3-.85-2.55-.92-6.83-1-11.1a62.28,62.28,0,0,0-.56-9.31c-.58-3.18.65-15.4,1.74-26.13.83-8.17,1.57-15.47,1.34-17.23-.28-2.28-1.85-4.4-3.62-6.8a36.35,36.35,0,0,1-4.09-6.47,26.88,26.88,0,0,1-2.05-7.4,26.87,26.87,0,0,0-2.06-7.39c-2.05-4.49-10.45-9.36-14.39-11.23,3.09-6.63,11.31-26.53,10.8-34.18C323,47.77,323,43.91,323,39.7h0c0-8.43,0-18.29-1.38-22-.22-.63-.42-1.29-.62-2h0C319.4,10.2,317.27,3,294.43.32c-21.75-2.59-27.67,10.91-35.21,28.11h0c-1.37,3.12-2.78,6.36-4.36,9.64-8.22,17.15-20.9,33-26.21,38.78,3,.82,4.16.16,4.93-.3s1.08-.64,2.27.3-2.32,5.58-6,10.34c-3.85,4.93-7.85,10-6.8,11.6.86,1.27,5.47,1.13,10.49,1,7-.22,14.77-.46,14.17,3.11C247.26,105.3,243,110.61,238,116.84Zm13.81,18c2.5-2.4,6.61-6.35,12.86-15.66,1.89,8.17,5.45,31.74,4.63,60.72-6.51-9.7-19.73-30.72-20.56-37.25C248.15,138.32,248.91,137.59,251.76,134.85Z" transform="translate(-99.66 0)"/></svg>