<svg width="395" height="450" viewBox="0 0 395 450" fill="none" xmlns="http://www.w3.org/2000/svg">
<g clip-path="url(#clip0_13_177)">
<path d="M197.165 225C227.002 225 255.617 213.147 276.715 192.05C297.812 170.952 309.665 142.337 309.665 112.5C309.665 82.6631 297.812 54.0483 276.715 32.9505C255.617 11.8526 227.002 0 197.165 0C167.328 0 138.713 11.8526 117.616 32.9505C96.5177 54.0483 84.665 82.6631 84.665 112.5C84.665 142.337 96.5177 170.952 117.616 192.05C138.713 213.147 167.328 225 197.165 225ZM156.999 267.188C70.4268 267.188 0.290039 337.324 0.290039 423.896C0.290039 438.311 11.9795 450 26.3936 450H367.937C382.351 450 394.04 438.311 394.04 423.896C394.04 337.324 323.903 267.188 237.331 267.188H156.999Z" fill="#F1F2F3"/>
</g>
<defs>
<clipPath id="clip0_13_177">
<rect width="393.75" height="450" fill="white" transform="translate(0.290039)"/>
</clipPath>
</defs>
</svg>
