<svg width="451" height="450" viewBox="0 0 451 450" fill="none" xmlns="http://www.w3.org/2000/svg">
<g clip-path="url(#clip0_13_167)">
<path d="M28.29 28.125C12.7334 28.125 0.165039 40.6934 0.165039 56.25C0.165039 71.8066 12.7334 84.375 28.29 84.375V337.5C28.29 384.082 66.083 421.875 112.665 421.875C137.802 421.875 160.302 410.889 175.771 393.486C175.858 381.006 180.692 368.613 190.185 359.121C190.36 358.945 190.272 358.594 190.009 358.594C162.851 358.594 140.79 336.533 140.79 309.375C140.79 282.217 162.851 260.156 190.009 260.156C190.272 260.156 190.36 259.805 190.185 259.629C170.937 240.381 170.937 209.268 190.185 190.02C192.294 187.91 194.579 185.977 197.04 184.307V84.375C212.597 84.375 225.165 71.8066 225.165 56.25C225.165 40.6934 212.597 28.125 197.04 28.125H140.79H84.54H28.29ZM84.54 168.75V84.375H140.79V168.75H84.54ZM190.009 330.469C215.321 330.469 227.978 361.055 210.136 378.984C201.874 387.246 201.874 400.605 210.136 408.779C218.397 416.953 231.757 417.041 239.931 408.779C257.86 390.85 288.446 403.594 288.446 428.906C288.446 440.596 297.851 450 309.54 450C321.229 450 330.634 440.596 330.634 428.906C330.634 403.594 361.22 390.938 379.149 408.779C387.411 417.041 400.771 417.041 408.944 408.779C417.118 400.518 417.206 387.158 408.944 378.984C391.103 361.055 403.759 330.469 429.071 330.469C440.761 330.469 450.165 321.064 450.165 309.375C450.165 297.686 440.761 288.281 429.071 288.281C403.759 288.281 391.103 257.695 408.944 239.766C417.206 231.504 417.206 218.145 408.944 209.971C400.683 201.797 387.323 201.709 379.149 209.971C361.22 227.812 330.634 215.156 330.634 189.844C330.634 178.154 321.229 168.75 309.54 168.75C297.851 168.75 288.446 178.154 288.446 189.844C288.446 215.156 257.86 227.812 239.931 209.971C231.669 201.709 218.31 201.709 210.136 209.971C201.962 218.232 201.874 231.592 210.136 239.766C228.065 257.695 215.321 288.281 190.009 288.281C178.319 288.281 168.915 297.686 168.915 309.375C168.915 321.064 178.319 330.469 190.009 330.469ZM281.415 253.125C288.874 253.125 296.028 256.088 301.302 261.363C306.577 266.637 309.54 273.791 309.54 281.25C309.54 288.709 306.577 295.863 301.302 301.137C296.028 306.412 288.874 309.375 281.415 309.375C273.956 309.375 266.802 306.412 261.528 301.137C256.253 295.863 253.29 288.709 253.29 281.25C253.29 273.791 256.253 266.637 261.528 261.363C266.802 256.088 273.956 253.125 281.415 253.125ZM316.571 337.5C316.571 331.906 318.794 326.54 322.75 322.584C326.705 318.629 332.071 316.406 337.665 316.406C343.259 316.406 348.625 318.629 352.581 322.584C356.536 326.54 358.759 331.906 358.759 337.5C358.759 343.094 356.536 348.46 352.581 352.416C348.625 356.371 343.259 358.594 337.665 358.594C332.071 358.594 326.705 356.371 322.75 352.416C318.794 348.46 316.571 343.094 316.571 337.5Z" fill="#F1F2F3"/>
</g>
<defs>
<clipPath id="clip0_13_167">
<rect width="450" height="450" fill="white" transform="translate(0.165039)"/>
</clipPath>
</defs>
</svg>
