<svg width="371" height="460" viewBox="0 0 371 460" fill="none" xmlns="http://www.w3.org/2000/svg">
<ellipse cx="185.165" cy="224.483" rx="185" ry="183.668" fill="#F1F2F3"/>
<path fill-rule="evenodd" clip-rule="evenodd" d="M155.359 38.0738C147.137 55.2162 134.461 71.066 129.151 76.8482C132.2 77.6738 133.306 77.0149 134.08 76.5531C134.742 76.1588 135.162 75.9083 136.346 76.8482C137.609 77.8517 134.026 82.4331 130.302 87.1949C126.453 92.1164 122.454 97.2305 123.498 98.7863C124.356 100.064 128.974 99.9196 133.989 99.7628C140.99 99.5439 148.764 99.3008 148.165 102.868C147.757 105.296 143.471 110.612 138.445 116.844C130.799 126.327 121.443 137.93 121.443 144.703C121.443 153.683 150.563 181.097 165.123 193.681C145.596 216.13 146.623 266.638 149.707 266.128C152.173 265.72 158.614 263.917 161.526 263.067C161.987 284.132 167.417 301.498 169.267 307.417C169.479 308.092 169.643 308.618 169.748 308.984C170.776 312.555 170.776 339.595 170.262 341.126C169.748 342.657 150.734 353.881 148.679 354.391C148.239 354.5 147.469 354.492 146.521 354.483H146.521C143.04 354.448 137.153 354.389 136.346 360.003C135.565 365.431 140.422 376.456 143.701 383.9C144.737 386.252 145.616 388.246 146.109 389.594C146.751 391.345 147.443 395.035 148.215 399.158C149.919 408.246 152.017 419.442 154.846 416.634C158.322 413.182 159.226 402.434 160.355 389.016L160.355 389.016C160.561 386.567 160.774 384.029 161.012 381.431C162.246 367.962 160.498 365.275 159.471 365.615C161.115 363.982 167.693 362.554 170.776 362.044C171.29 361.363 172.112 365.513 171.29 387.553C170.566 406.972 174.182 419.801 175.839 425.682C176.533 428.144 176.884 429.389 176.429 429.389C174.887 429.389 164.096 439.592 172.318 447.245C180.54 454.898 202.123 460 209.832 460C217.54 460 222.679 457.959 223.193 454.388C223.562 451.826 218.111 449.263 213.862 447.266L213.862 447.266C212.189 446.48 210.703 445.781 209.832 445.205C206.748 443.164 204.693 441.123 202.123 437.042C200.068 433.776 194.758 430.579 192.359 429.389C194.415 416.736 197.67 373.438 199.04 353.371C251.457 335.514 268.415 323.269 269.443 316.127C270.217 310.749 265.164 301.901 260.866 294.372L260.865 294.371C259.454 291.901 258.125 289.573 257.109 287.556C254.894 283.158 248.949 276.389 243.936 270.682L243.936 270.682C239.646 265.798 236.04 261.693 236.04 260.516C236.04 259.305 237.43 259.819 239.056 260.42C240.853 261.085 242.939 261.856 243.748 260.516C245.29 257.965 244.262 220.721 243.748 211.028C243.33 203.139 240.53 195.589 238.67 190.576L238.67 190.575C238.245 189.428 237.869 188.414 237.582 187.559C236.725 185.009 236.662 180.728 236.598 176.464C236.548 173.05 236.497 169.647 236.04 167.152C235.457 163.967 236.694 151.746 237.779 141.024C238.607 132.852 239.346 125.551 239.123 123.786C238.837 121.51 237.273 119.394 235.5 116.994C234.092 115.088 232.552 113.004 231.415 110.521C230.13 107.715 229.745 105.419 229.359 103.123V103.123C228.974 100.827 228.589 98.5312 227.304 95.7252C225.248 91.2355 216.855 86.3717 212.915 84.501C215.998 77.8686 224.221 57.9712 223.707 50.3184C223.535 47.7674 223.535 43.9126 223.535 39.6989V39.6987C223.535 31.2712 223.535 21.4076 222.165 17.6663C221.937 17.0435 221.74 16.383 221.536 15.6967L221.536 15.6966C219.901 10.1983 217.772 3.04128 194.929 0.31986C173.176 -2.27171 167.261 11.2263 159.721 28.4306L159.721 28.4307C158.355 31.548 156.936 34.7869 155.359 38.0738ZM149.193 142.663C150.015 149.193 163.239 170.213 169.748 179.906C170.571 150.928 167.008 127.357 165.123 119.194C158.872 128.503 154.758 132.452 152.255 134.854C149.409 137.587 148.646 138.319 149.193 142.663ZM207.262 290.107C208.29 289.597 233.984 307.454 232.957 308.984C231.929 310.515 203.665 326.331 202.637 324.8C201.609 323.269 206.234 291.128 207.262 290.107Z" fill="#E371A9"/>
</svg>
