<svg width="451" height="450" viewBox="0 0 451 450" fill="none" xmlns="http://www.w3.org/2000/svg">
<g clip-path="url(#clip0_13_43)">
<path d="M420.194 2.02148C418.436 2.72461 415.624 4.04297 414.042 5.09766C412.372 6.15234 368.163 49.9219 315.692 102.393L220.331 197.754L236.854 214.189L253.29 230.713L349.53 134.473C419.403 64.6875 446.298 37.1777 447.704 34.3652C454.735 19.8633 444.628 2.37305 428.456 1.23047C425.38 0.966797 422.04 1.31836 420.194 2.02148Z" fill="#F1F2F3"/>
<path d="M228.593 24.873C226.396 26.543 225.165 29.5312 225.165 33.3105C225.165 37.6172 222.616 44.6484 219.364 49.3066C214.706 55.9863 208.202 59.2383 195.019 61.084C190.888 61.6992 188.251 64.5117 188.251 68.291C188.251 72.9492 191.151 75.2344 198.095 75.9375C209.081 77.168 218.573 83.6719 222.616 92.8125C223.583 94.834 224.638 99.4043 225.077 102.92C226.044 110.479 227.89 112.852 232.724 112.852C237.382 112.852 239.667 109.863 240.37 102.832C241.952 87.8906 252.323 77.5195 267.177 76.0254C275.526 75.1465 278.866 71.6309 276.933 65.918C275.79 62.666 272.187 60.6445 267.44 60.6445C259.354 60.6445 247.577 53.4375 243.886 46.1426C241.952 42.4512 240.106 35.332 240.106 31.3769C240.106 26.9824 236.942 23.7305 232.899 23.7305C231.317 23.7305 229.384 24.2578 228.593 24.873Z" fill="#F1F2F3"/>
<path d="M120.399 128.496L120.136 135.791L112.401 136.055L104.667 136.318L104.931 143.525L105.194 150.732L112.929 150.996L120.575 151.26V158.73V166.201L127.87 165.938L135.077 165.674L135.341 158.467L135.604 151.26L142.812 150.996L150.019 150.732L150.282 143.438L150.546 136.23H142.987H135.517V128.76V121.289H128.046H120.663L120.399 128.496Z" fill="#F1F2F3"/>
<path d="M375.458 173.584V181.055H367.987H360.517V188.525V195.996H367.987H375.458V203.467V210.938H382.929H390.399V203.467V195.996H397.87H405.341V188.525V181.055H397.87H390.399V173.584V166.113H382.929H375.458V173.584Z" fill="#F1F2F3"/>
<path d="M184.12 197.754C172.431 200.127 164.433 212.607 167.157 224.121C167.772 226.494 169.354 230.186 170.673 232.207C172.079 234.316 183.241 245.918 195.458 258.135C211.366 273.867 218.925 280.811 221.649 282.041C226.395 284.238 235.272 284.502 239.667 282.656C251.972 277.471 257.333 262.969 251.181 251.631C247.665 245.127 204.071 201.973 198.798 199.6C193.788 197.49 188.778 196.787 184.12 197.754Z" fill="#F1F2F3"/>
<path d="M137.187 235.635C120.663 237.217 102.47 245.479 87.6162 258.223C38.3096 300.498 3.85644 330.469 2.53808 332.314C-0.274424 336.182 -0.362314 341.807 2.18651 349.98C4.91112 358.77 14.8428 376.348 22.7529 386.719C22.9287 386.895 35.2334 374.941 50.0869 360.088L77.0693 333.105L82.3428 338.379L87.6162 343.652L60.0185 371.25L32.4209 398.848L34.2666 401.309C35.2334 402.715 39.4521 407.197 43.583 411.328L51.1416 418.799L90.2529 379.688L129.364 340.576L134.638 345.85L139.911 351.123L101.503 389.619C79.706 411.328 63.3584 428.379 63.8857 428.731C74.8721 436.729 90.956 445.957 98.7783 448.77C103.085 450.264 114.335 450.439 117.499 448.945C118.729 448.418 133.407 431.895 150.194 412.295C167.069 392.695 184.208 372.744 188.515 367.998C197.655 357.539 202.929 349.805 207.587 339.961C213.212 327.832 214.97 320.361 214.97 307.178L215.058 295.84L211.103 293.203C202.929 287.842 157.489 241.523 155.556 236.602C155.116 235.371 145.448 234.844 137.187 235.635Z" fill="#F1F2F3"/>
<path d="M332.831 280.547C330.985 282.217 330.458 283.799 329.755 289.336C327.909 304.629 318.856 313.682 303.563 315.527C298.026 316.23 296.444 316.758 294.862 318.604C291.698 322.207 292.489 327.48 296.532 329.678C297.499 330.205 301.103 330.996 304.355 331.436C318.505 333.193 327.909 342.598 329.667 356.748C330.106 360 330.897 363.604 331.425 364.57C333.622 368.613 338.896 369.404 342.499 366.24C344.345 364.658 344.872 363.076 345.575 357.539C347.421 342.246 356.474 333.193 371.767 331.348C377.304 330.645 378.886 330.117 380.556 328.272C381.61 326.953 382.489 324.844 382.489 323.438C382.489 322.031 381.61 319.922 380.556 318.604C378.886 316.758 377.304 316.23 371.767 315.527C356.474 313.682 347.421 304.629 345.575 289.336C344.872 283.799 344.345 282.217 342.499 280.547C341.181 279.492 339.071 278.613 337.665 278.613C336.259 278.613 334.149 279.492 332.831 280.547Z" fill="#F1F2F3"/>
</g>
<defs>
<clipPath id="clip0_13_43">
<rect width="450" height="450" fill="white" transform="translate(0.165039)"/>
</clipPath>
</defs>
</svg>
