<svg width="33" height="33" viewBox="0 0 33 33" fill="none" xmlns="http://www.w3.org/2000/svg">
<g clip-path="url(#clip0_9_68)">
<path d="M10.7357 1.93491C10.2344 0.723972 8.91276 0.0794403 7.64974 0.424492L1.92057 1.98699C0.78776 2.29949 0 3.32814 0 4.50001C0 20.6068 13.0599 33.6667 29.1667 33.6667C30.3385 33.6667 31.3672 32.8789 31.6797 31.7461L33.2422 26.0169C33.5872 24.7539 32.9427 23.4323 31.7318 22.931L25.4818 20.3268C24.4206 19.8841 23.1901 20.1901 22.4674 21.082L19.8372 24.2917C15.2539 22.1237 11.543 18.4128 9.375 13.8294L12.5846 11.2057C13.4766 10.4766 13.7826 9.25262 13.3398 8.19142L10.7357 1.94142V1.93491Z" fill="#F1F2F3"/>
</g>
<defs>
<clipPath id="clip0_9_68">
<rect width="33" height="33" fill="white" transform="translate(0 0.333344)"/>
</clipPath>
</defs>
</svg>
