<svg width="34" height="34" viewBox="0 0 34 34" fill="none" xmlns="http://www.w3.org/2000/svg">
<path fill-rule="evenodd" clip-rule="evenodd" d="M23.3987 14.2245C21.6128 15.7871 19.1906 16.665 16.665 16.665C14.1394 16.665 11.7172 15.7871 9.93132 14.2245C8.14544 12.6618 7.14214 10.5424 7.14214 8.3325C7.14214 6.12258 8.14544 4.00318 9.93132 2.44053C11.7172 0.877886 14.1394 0 16.665 0C19.1906 0 21.6128 0.877886 23.3987 2.44053C25.1846 4.00318 26.1879 6.12258 26.1879 8.3325C26.1879 10.5424 25.1846 12.6618 23.3987 14.2245ZM0 31.3966C0 24.9845 5.93691 19.7897 13.265 19.7897H20.065C23.0559 19.7897 25.815 20.655 28.0334 22.1153C27.7162 22.283 27.5 22.6162 27.5 23V30.0858L24.7071 27.2929C24.3166 26.9024 23.6834 26.9024 23.2929 27.2929C22.9024 27.6834 22.9024 28.3166 23.2929 28.7071L27.7876 33.2018C27.8072 33.2217 27.8276 33.2408 27.8488 33.259C27.8787 33.2847 27.9098 33.3084 27.9419 33.33H2.2096C0.989485 33.33 0 32.4642 0 31.3966ZM29.0581 33.33H31.1204C32.3405 33.33 33.33 32.4642 33.33 31.3966C33.33 30.5443 33.2251 29.7134 33.026 28.9135L29.2532 33.1578C29.2434 33.1691 29.2332 33.1802 29.2228 33.1911C29.2042 33.2105 29.1851 33.229 29.1653 33.2466C29.1311 33.2772 29.0952 33.305 29.0581 33.33ZM32.3511 27.0111C31.6883 25.5903 30.7131 24.3103 29.5 23.2365V29.8698L31.7526 27.3356C31.9144 27.1536 32.1277 27.0446 32.3511 27.0111Z" fill="#F1F2F3"/>
</svg>
