<svg width="33" height="33" viewBox="0 0 33 33" fill="none" xmlns="http://www.w3.org/2000/svg">
<g clip-path="url(#clip0_9_86)">
<path d="M16.665 2.41812C17.6694 2.41812 18.6217 2.78267 19.2987 3.43364L32.3926 15.9324C33.3523 16.8438 33.5978 18.1652 33.0324 19.3045C32.467 20.4437 31.1725 21.1662 29.7589 21.1662H3.57107C2.15752 21.1662 0.870449 20.4372 0.305029 19.2979C-0.260391 18.1587 -0.0148795 16.8438 0.944846 15.9259L14.0388 3.42714C14.7084 2.78267 15.6606 2.41812 16.665 2.41812ZM0 28.4572C0 26.7321 1.59954 25.3325 3.57107 25.3325H29.7589C31.7305 25.3325 33.33 26.7321 33.33 28.4572C33.33 30.1823 31.7305 31.5819 29.7589 31.5819H3.57107C1.59954 31.5819 0 30.1823 0 28.4572Z" fill="#F1F2F3"/>
</g>
<defs>
<clipPath id="clip0_9_86">
<rect width="33" height="33" fill="white" transform="translate(0 0.334991)"/>
</clipPath>
</defs>
</svg>
